<svg width="192" height="192" fill="none" xmlns="http://www.w3.org/2000/svg"><g clip-path="url(#clip0)" stroke="#000"><path d="M8 153.727c0 7.372 1.048 14.348 4.171 20.587 3.605 7.204 9.08 7.219 15.117 7.219 9.759 0 17.716-14.481 23.343-23.231 8.04-12.502 12.922-27.674 17.191-42.779 3.525-12.473 6.386-24.643 8.641-37.58 2.376-13.627 4.635-27.665 9.518-40.255 2.4-6.187 4.156-13.097 6.13-19.547.511-1.673 1.32-6.655 2.995-6.655m36.501 8.021c0 3.59.137 7.26-.322 10.814-.674 5.206-2.602 9.9-4.241 14.676-5.227 15.236-12.434 29.247-18.273 44.116-3.886 9.895-7.848 19.897-11.13 30.153-5.194 16.227-10.795 32.068-12.398 49.671-.48 5.26-1.937 13.625 3.088 15.805 3.91 1.696 8.401 1.628 12.466 1.842 10.258.538 20.736.85 30.925-.981 7.525-1.352 15.403-3.223 22.56-6.625 1.763-.837 3.773-1.962 4.84-4.07 1.405-2.778-.195-3.564-2.213-4.604" stroke-width="5" stroke-linecap="round" stroke-linejoin="round"/><path d="M38.505 18.438c-.225-1.63-.599-3.57-.323-5.229.791-4.76 6.74-5.826 9.61-6.357 7.844-1.453 15.975-1.159 23.873-1.218 14.233-.107 28.467-.03 42.701-.03C138.589 5.604 162.79 4 187 4" stroke-width="5" stroke-linecap="round" stroke-linejoin="round"/><path stroke-width=".75" d="M0 0h192v192H0z"/></g><defs><clipPath id="clip0"><path fill="#fff" d="M0 0h192v192H0z"/></clipPath></defs></svg>